<?xml version="1.0" encoding="UTF-8"?>
<!DOCTYPE svg PUBLIC "-//W3C//DTD SVG 1.1//EN" "http://www.w3.org/Graphics/SVG/1.1/DTD/svg11.dtd">
<!-- Creator: CorelDRAW 2020 (64-Bit) -->
<svg xmlns="http://www.w3.org/2000/svg" xml:space="preserve" width="100mm" height="36mm" version="1.1" style="shape-rendering:geometricPrecision; text-rendering:geometricPrecision; image-rendering:optimizeQuality; fill-rule:evenodd; clip-rule:evenodd"
viewBox="0 0 10000 3600"
 xmlns:xlink="http://www.w3.org/1999/xlink"
 xmlns:xodm="http://www.corel.com/coreldraw/odm/2003">
 <defs>
  <style type="text/css">
   <![CDATA[
    .fil1 {fill:#FEFEFE}
    .fil0 {fill:#FEFEFE;fill-rule:nonzero}
   ]]>
  </style>
 </defs>
 <g id="Capa_x0020_1">
  <metadata id="CorelCorpID_0Corel-Layer"/>
  <g id="_2705687707072">
   <g>
    <path class="fil0" d="M2282.14 2468.92l-1608.02 -1582.83 0 1068.8 -247.29 542.5 -161.85 -395.95c117.28,-81.57 190.44,-160.3 172.11,-191.3 -17.61,-29.79 -114.54,-6.8 -235.66,51.34l-2.98 -6.59 0 -283.01c154.89,-95.62 260.24,-198.35 238.64,-234.87 -17.76,-30.04 -116.13,-6.42 -238.64,52.77l0 -291.02c154.89,-95.63 260.24,-198.35 238.64,-234.88 -17.76,-30.03 -116.13,-6.42 -238.64,52.78l0 -291.03c154.89,-95.63 260.24,-198.35 238.64,-234.87 -17.76,-30.04 -116.13,-6.43 -238.64,52.77l0 -423.47 50.96 0 349.15 0 1274.19 1332.02 0 -1332.02 460.35 0 0 2348.86 -50.96 0z"/>
    <polygon class="fil0" points="3094.47,513.46 3094.47,1098.74 4243.21,1098.74 4243.21,1504.91 3094.47,1504.91 3094.47,2055 4389.24,2055 4389.24,2457.97 2640.17,2457.97 2640.17,116.89 4389.24,116.89 4389.24,513.46 "/>
    <path class="fil0" d="M6952 1178.68c-2.19,44.78 -3.3,86.36 -3.3,124.73 -2.18,34.12 -3.3,67.7 -3.3,100.76 0,33.04 -1.1,58.1 -3.31,75.15 -13.2,147.11 -54.49,283.57 -123.86,409.36 -69.36,125.8 -158.53,234.02 -267.52,324.63 -109,90.61 -234.5,161.51 -376.54,212.68 -142.02,51.17 -291.2,76.76 -447.53,76.76 -171.75,0 -333.6,-32 -485.53,-95.95 -151.94,-63.96 -285.15,-150.85 -399.11,-260.65 -113.93,-109.81 -204.22,-238.27 -270.84,-385.4 -66.6,-147.1 -99.62,-303.82 -99.62,-470.13 0,-166.3 33.02,-323.55 99.62,-471.73 66.62,-148.19 156.91,-277.19 270.84,-386.99 113.96,-109.8 247.17,-196.68 399.11,-260.65 151.93,-63.96 313.78,-95.94 485.53,-95.94 217.99,0 417.81,49.04 599.48,147.11 181.65,98.09 328.63,229.21 440.92,393.39l-396.34 233.46c-70.45,-100.21 -162.4,-184.43 -275.79,-252.66 -113.41,-68.22 -236.16,-102.34 -368.27,-102.34 -110.11,0 -213.04,21.86 -308.82,65.56 -95.78,43.71 -179.47,101.81 -251.04,174.31 -71.56,72.49 -128.25,157.24 -170.08,254.26 -41.84,97 -62.76,197.75 -62.76,302.22 0,106.61 20.92,207.88 62.76,303.83 41.83,95.95 98.52,180.17 170.08,252.66 71.57,72.5 155.26,130.6 251.04,174.31 95.78,43.7 198.71,65.56 308.82,65.56 83.68,0 164.03,-12.27 241.11,-36.79 77.07,-24.51 147.52,-59.16 211.38,-103.94 63.85,-44.77 119.46,-98.07 166.79,-159.91 47.34,-61.82 82.02,-130.05 104.03,-204.67l-891.75 0 0 -402.99 1393.8 0z"/>
    <path class="fil1" d="M371.38 582.98c182.19,-101.69 349.81,-152.31 374.4,-113.06 24.58,39.24 -103.19,153.5 -285.39,255.19 -182.19,101.69 -349.81,152.31 -374.4,113.07 -24.58,-39.25 103.19,-153.51 285.39,-255.2z"/>
    <path class="fil1" d="M378.45 1044.72c178.78,-99.8 343.26,-149.47 367.37,-110.95 24.14,38.51 -101.24,150.61 -280.02,250.4 -178.79,99.8 -343.26,149.45 -367.38,110.95 -24.12,-38.51 101.24,-150.62 280.03,-250.4z"/>
    <path class="fil1" d="M381.87 1503.84c177.12,-98.86 340.09,-148.07 363.98,-109.92 23.9,38.15 -100.31,149.23 -277.44,248.1 -177.13,98.86 -340.09,148.07 -363.99,109.92 -23.91,-38.16 100.32,-149.23 277.45,-248.1z"/>
    <path class="fil1" d="M399.92 1973.39c168.42,-94.01 323.36,-140.8 346.08,-104.52 22.73,36.28 -95.39,141.89 -263.79,235.89 -168.41,94 -323.36,140.79 -346.07,104.51 -22.73,-36.28 95.37,-141.88 263.78,-235.88z"/>
    <path class="fil1" d="M139.36 17.17l569.25 0c31.03,0 56.39,25.36 56.39,56.39l0 0.02c0,31.03 -25.36,56.39 -56.39,56.39l-569.25 0c-31.03,0 -56.4,-25.36 -56.4,-56.39l0 -0.02c0,-31.03 25.37,-56.39 56.4,-56.39z"/>
    <path class="fil1" d="M1818.3 17.17l569.25 0c31.03,0 56.4,25.36 56.4,56.39l0 0.02c0,31.03 -25.37,56.39 -56.4,56.39l-569.25 0c-31.03,0 -56.39,-25.36 -56.39,-56.39l0 -0.02c0,-31.03 25.36,-56.39 56.39,-56.39z"/>
    <path class="fil1" d="M9258.24 116.96l639.7 1107.99c15.3,26.5 15.3,56.84 0,83.35l-639.7 1107.99c-15.3,26.5 -41.58,41.67 -72.18,41.67l-1279.4 0c-30.61,0 -56.88,-15.17 -72.18,-41.67l-639.7 -1107.99c-15.3,-26.51 -15.3,-56.85 0,-83.35l639.7 -1107.99c15.3,-26.5 41.57,-41.68 72.18,-41.68l1279.4 0c30.6,0 56.88,15.18 72.18,41.68zm-711.88 459.27c381.29,0 690.39,309.1 690.39,690.39 0,381.3 -309.1,690.39 -690.39,690.39 -381.29,0 -690.39,-309.09 -690.39,-690.39 0,-381.29 309.1,-690.39 690.39,-690.39z"/>
    <path class="fil1" d="M8546.36 695.7c315.31,0 570.92,255.61 570.92,570.92 0,315.31 -255.61,570.92 -570.92,570.92 -315.31,0 -570.92,-255.61 -570.92,-570.92 0,-315.31 255.61,-570.92 570.92,-570.92zm0 70.39c276.43,0 500.53,224.1 500.53,500.53 0,276.44 -224.1,500.54 -500.53,500.54 -276.44,0 -500.53,-224.1 -500.53,-500.54 0,-276.43 224.09,-500.53 500.53,-500.53z"/>
   </g>
   <g>
    <path class="fil0" d="M2132.87 3167.37l-326.47 0 0 107.23 310.85 0c48.94,0 81.78,8.36 99,24.95 17.22,16.73 25.75,47.64 25.75,93.04l0 68.57c0,45.08 -8.53,76.15 -25.75,92.73 -17.22,16.59 -50.06,24.95 -99,24.95l-307.95 0c-48.77,0 -81.78,-8.36 -98.85,-24.95 -17.22,-16.58 -25.75,-47.65 -25.75,-92.73l0 -13.67 102.38 -21.26 0 58.92 352.55 0 0 -113.98 -311.02 0c-48.44,0 -81.14,-8.36 -98.19,-24.95 -16.91,-16.58 -25.44,-47.49 -25.44,-92.71l0 -55.22c0,-45.24 8.53,-76.14 25.44,-92.89 17.05,-16.58 49.75,-24.94 98.19,-24.94l283 0c46.86,0 79.21,8.04 96.92,23.98 17.87,16.09 26.72,44.42 26.72,85.32l0 10.45 -102.38 24.15 0 -56.99zm349.64 411.47l0 -498.38 115.9 0 0 498.38 -115.9 0zm369.77 0l0 -498.38 79.19 0 350.94 293.78c11.91,9.66 22.38,18.83 31.55,27.53 9.18,8.69 17.4,17.55 24.96,26.72 -1.78,-28.01 -3.05,-47.81 -3.71,-59.41 -0.63,-11.75 -0.96,-20.6 -0.96,-26.88l0 -261.74 104.32 0 0 498.38 -79.21 0 -366.06 -307.95c-8.7,-7.89 -16.42,-14.82 -23.02,-21.25 -6.6,-6.28 -12.71,-12.72 -18.35,-19.32 1.44,15.46 2.73,29.95 3.53,43.63 0.81,13.69 1.13,25.6 1.13,35.58l0 269.31 -104.31 0zm1258.69 -409.52l-312.94 0 0 315.83 312.94 0 0 -107.21 115.91 24.14 0 58.92c0,45.56 -8.54,76.64 -25.76,93.06 -17.06,16.56 -49.59,24.78 -97.72,24.78l-297.8 0c-48.46,0 -81.14,-8.22 -98.05,-24.78 -16.89,-16.42 -25.43,-47.5 -25.43,-93.06l0 -262.88c0,-45.07 8.54,-76.13 25.43,-92.72 16.91,-16.58 49.59,-24.94 98.05,-24.94l297.8 0c48.13,0 80.66,8.36 97.72,24.94 17.22,16.59 25.76,47.65 25.76,92.72l0 47.33 -115.91 18.51 0 -94.64zm355.28 409.52l0 -498.38 509.98 0 0 84.99 -394.08 0 0 111.08 229.87 0 0 84.99 -229.87 0 0 123.63 398.9 0 0 93.69 -514.8 0zm1317.45 0l0 -403.74 -106.25 0 0 -66.48 211.53 -32.03 0 502.25 -105.28 0zm938.99 -198.16c-35.74,5.78 -72.13,9.98 -108.82,12.55 -36.86,2.74 -73.9,4.03 -111.39,4.03 -80.5,0 -135.72,-9.34 -165.65,-28.02 -30.11,-18.67 -45.08,-52.15 -45.08,-100.11l0 -66.97c0,-41.55 13.68,-72.13 41.21,-91.93 27.52,-19.81 70.67,-29.77 129.1,-29.77l210.25 0c62.93,0 106.08,10.94 129.26,32.98 23.33,22.06 34.93,62.31 34.93,120.74l0 65.53c0,92.55 -32.04,164.19 -96.26,214.91 -64.08,50.53 -154.54,75.81 -271.58,75.81 -9.66,0 -17.06,0 -21.89,-0.15 -4.83,-0.17 -9.5,-0.66 -13.84,-1.29l-68.43 -79.7 31.57 0c106.24,0 183.03,-9.65 230.2,-29.13 47.31,-19.47 79.51,-52.64 96.42,-99.48zm5.64 -76.31c0.96,-5.64 1.76,-11.11 2.24,-16.26 0.49,-5.15 0.65,-9.66 0.65,-13.36 0,-49.1 -6.44,-79.52 -19.32,-91.43 -12.88,-11.91 -41.21,-17.87 -84.83,-17.87l-138.12 0c-34.93,0 -58.92,4.34 -72.12,13.2 -13.2,8.69 -19.8,25.11 -19.8,48.93l0 27.85c0,24.15 7.4,40.41 22.21,48.94 14.65,8.54 44.43,12.72 89.02,12.72 31.4,0 65.68,-0.96 103.03,-3.05 37.18,-2.11 76.31,-5.33 117.04,-9.67zm740.98 76.31c-35.74,5.78 -72.13,9.98 -108.82,12.55 -36.86,2.74 -73.9,4.03 -111.39,4.03 -80.5,0 -135.72,-9.34 -165.65,-28.02 -30.11,-18.67 -45.08,-52.15 -45.08,-100.11l0 -66.97c0,-41.55 13.68,-72.13 41.21,-91.93 27.53,-19.81 70.67,-29.77 129.1,-29.77l210.25 0c62.93,0 106.08,10.94 129.26,32.98 23.33,22.06 34.93,62.31 34.93,120.74l0 65.53c0,92.55 -32.03,164.19 -96.26,214.91 -64.08,50.53 -154.54,75.81 -271.58,75.81 -9.66,0 -17.06,0 -21.89,-0.15 -4.82,-0.17 -9.5,-0.66 -13.84,-1.29l-68.42 -79.7 31.56 0c106.24,0 183.03,-9.65 230.2,-29.13 47.31,-19.47 79.52,-52.64 96.42,-99.48zm5.64 -76.31c0.96,-5.64 1.77,-11.11 2.24,-16.26 0.49,-5.15 0.65,-9.66 0.65,-13.36 0,-49.1 -6.43,-79.52 -19.32,-91.43 -12.88,-11.91 -41.21,-17.87 -84.83,-17.87l-138.12 0c-34.93,0 -58.91,4.34 -72.12,13.2 -13.2,8.69 -19.8,25.11 -19.8,48.93l0 27.85c0,24.15 7.4,40.41 22.21,48.94 14.65,8.54 44.44,12.72 89.02,12.72 31.4,0 65.68,-0.96 103.03,-3.05 37.18,-2.11 76.31,-5.33 117.04,-9.67zm426.75 274.47c-44.75,0 -75.01,-6.93 -90.47,-20.76 -15.62,-13.84 -23.34,-39.61 -23.34,-77.12l0 -40.4 102.38 -21.09 0 69.55 268.68 0c19.15,0 32.02,-2.9 38.47,-8.86 6.44,-5.96 9.66,-17.87 9.66,-35.73l0 -36.22c0,-18.2 -3.22,-30.44 -9.82,-36.55 -6.6,-6.11 -19.33,-9.18 -38.31,-9.18l-168.23 0 0 -81.13 149.87 0c18.83,0 31.4,-3.06 37.67,-9.01 6.28,-5.96 9.49,-18.2 9.49,-36.54l0 -24.95c0,-18.36 -3.21,-30.59 -9.49,-36.55 -6.27,-5.96 -18.84,-8.85 -37.67,-8.85l-246.46 0 0 61.82 -98.52 -18.2 0 -30.91c0,-37.5 7.73,-63.1 23.19,-76.94 15.29,-13.85 45.55,-20.76 90.46,-20.76l269.97 0c45.07,0 75.33,6.91 90.62,20.76 15.46,13.84 23.18,39.44 23.18,76.94l0 44.93c0,29.29 -7.07,51.02 -21.24,65.18 -14.16,14.33 -39.12,24.15 -75.02,29.95 39.93,3.69 69.22,13.68 87.74,30.1 18.51,16.25 27.85,40.09 27.85,71.15l0 52.16c0,40.88 -8.85,69.06 -26.4,84.35 -17.71,15.3 -49.1,22.86 -94.5,22.86l-289.76 0z"/>
    <g>
     <polygon class="fil1" points="1092.49,3076.6 1264.38,3076.6 1264.38,3590.43 1092.49,3590.43 1219.32,3333.51 "/>
     <polygon class="fil1" points="8904.59,3076.6 8732.7,3076.6 8732.7,3590.43 8904.59,3590.43 8777.76,3333.51 "/>
    </g>
   </g>
  </g>
 </g>
</svg>
