<?xml version="1.0" encoding="UTF-8"?>
<!DOCTYPE svg PUBLIC "-//W3C//DTD SVG 1.1//EN" "http://www.w3.org/Graphics/SVG/1.1/DTD/svg11.dtd">
<!-- Creator: CorelDRAW 2020 (64-Bit) -->
<svg xmlns="http://www.w3.org/2000/svg" xml:space="preserve" width="38mm" height="34mm" version="1.1" style="shape-rendering:geometricPrecision; text-rendering:geometricPrecision; image-rendering:optimizeQuality; fill-rule:evenodd; clip-rule:evenodd"
viewBox="0 0 3800 3400"
 xmlns:xlink="http://www.w3.org/1999/xlink"
 xmlns:xodm="http://www.corel.com/coreldraw/odm/2003">
 <defs>
  <style type="text/css">
   <![CDATA[
    .fil0 {fill:#FFCC29}
   ]]>
  </style>
 </defs>
 <g id="Capa_x0020_1">
  <metadata id="CorelCorpID_0Corel-Layer"/>
  <g id="_2705685372960">
   <path class="fil0" d="M2859.57 147.59l865.69 1499.42c20.7,35.87 20.7,76.92 0,112.79l-865.69 1499.42c-20.71,35.87 -56.27,56.4 -97.68,56.4l-1731.38 0c-41.42,0 -76.98,-20.53 -97.69,-56.4l-865.68 -1499.42c-20.71,-35.87 -20.71,-76.92 0,-112.79l865.68 -1499.42c20.71,-35.86 56.27,-56.4 97.69,-56.4l1731.38 0c41.41,0 76.97,20.54 97.68,56.4zm-963.37 621.53c515.99,0 934.29,418.29 934.29,934.28 0,516 -418.3,934.29 -934.29,934.29 -516,0 -934.29,-418.29 -934.29,-934.29 0,-515.99 418.29,-934.28 934.29,-934.28z"/>
   <path class="fil0" d="M1896.2 930.79c426.7,0 772.61,345.91 772.61,772.61 0,426.71 -345.91,772.62 -772.61,772.62 -426.7,0 -772.62,-345.91 -772.62,-772.62 0,-426.7 345.92,-772.61 772.62,-772.61zm0 95.26c374.09,0 677.35,303.26 677.35,677.35 0,374.1 -303.26,677.36 -677.35,677.36 -374.1,0 -677.36,-303.26 -677.36,-677.36 0,-374.09 303.26,-677.35 677.36,-677.35z"/>
  </g>
 </g>
</svg>
