<?xml version="1.0" encoding="UTF-8"?>
<!DOCTYPE svg PUBLIC "-//W3C//DTD SVG 1.1//EN" "http://www.w3.org/Graphics/SVG/1.1/DTD/svg11.dtd">
<!-- Creator: CorelDRAW 2020 (64-Bit) -->
<svg xmlns="http://www.w3.org/2000/svg" xml:space="preserve" width="50.7152mm" height="32.0038mm" version="1.1" style="shape-rendering:geometricPrecision; text-rendering:geometricPrecision; image-rendering:optimizeQuality; fill-rule:evenodd; clip-rule:evenodd"
viewBox="0 0 5071.52 3200.38"
 xmlns:xlink="http://www.w3.org/1999/xlink"
 xmlns:xodm="http://www.corel.com/coreldraw/odm/2003">
 <defs>
  <style type="text/css">
   <![CDATA[
    .fil1 {fill:#FEFEFE}
    .fil0 {fill:#F26B37}
   ]]>
  </style>
 </defs>
 <g id="Capa_x0020_1">
  <metadata id="CorelCorpID_0Corel-Layer"/>
  <g id="_2705374995232">
   <g>
    <path class="fil0" d="M983.77 2214.35c-38.84,39.79 -111.67,65.18 -157.46,112.08 -38.22,39.16 -85.03,67.1 -112.68,119.11 -16.58,31.19 3.76,23.57 -20.91,43.44 -56.56,44.64 -46.24,-20.86 -140.49,112.63 -96.37,136.51 -32.91,27.58 -130.22,129.03 -31.62,32.97 -73.42,58.44 -91.19,79.04l-79.58 98.71c-78.87,86.54 -188.54,186.33 -246.1,287 42.97,-21.7 473.82,-361.52 520.1,-414.5 98.24,-112.46 138.08,-73.54 217.27,-148.28 30.57,-28.84 65.44,-71.35 97.53,-93.87 41.97,-29.44 56.9,-18.99 109.87,-71.7 116.93,-116.36 109.16,-78.05 158.79,-118.61 28.09,-22.96 55.4,-50.74 84.1,-75.43l-95.52 0c-39.14,0 -76.01,-16.54 -102.04,-45.77l-11.47 -12.88zm391.06 -40.84l4.99 -2.2c-0.85,-3.19 -1.59,-6.43 -2.2,-9.71 -0.76,4.03 -1.69,8.01 -2.79,11.91zm1787.63 -1180.02c40.59,-84.77 49.37,-49.84 110.47,-88.6 42.17,-26.76 13.65,-19.59 71.39,-33.36l143.11 -66.27c145.02,-113.8 91.02,-140.32 218.1,-105.23 29.75,-41.6 33.48,-41.4 74.46,-56.04l158.98 -91.82c39.25,-16.66 55.97,10.27 95.06,-17.32 49.62,-35.02 15.92,-31.88 79.65,-45.87 33.02,-7.26 47.8,-38.71 77.12,-50.09l80.55 -43.4c26.6,-15.09 61.68,-21.05 91.93,-36.88 86.91,-45.47 587.61,-236.82 703.1,-244.47 -99.87,-17.76 -431.19,47.34 -538.82,68.76l-389.37 95.27c-54.37,14.04 -58.77,46.29 -127.12,40.52 -63.41,-5.35 -64.76,2.59 -114,51.51 -39.13,38.88 -76.98,33.95 -119.87,54.99 -28.56,14.01 -15.99,32.4 -52.45,36.67 -28.66,3.35 -41.44,-14.15 -78.74,-3.4 -31.89,9.18 -10.56,14.42 -60.04,26.85 -27.07,6.8 -40.79,14.8 -61.51,23.84 -51.19,22.34 -62,33.11 -115.71,48.06 -35.15,9.78 -79.21,46.57 -111.4,69.06 -52.72,36.82 -93.69,38.45 -149.95,66.98 -1.57,0.8 -26.33,14.98 -28.59,16.74 -35.64,27.61 -8.72,14.84 -26.43,59.23 -88.25,-16.4 -109.71,14.54 -177.43,44.4 -24.46,10.79 -35.98,9.63 -59.66,14.3 -15.28,36.24 -18.9,55.89 -52.61,69.31l-43.59 6.37c-20.54,-1.33 -34.08,-8.12 -55.08,-9.19l-21.28 66.74c-5.74,9.77 -7.6,3.27 -12.79,6.08l-11.74 6.75c-1.66,0.97 -3.88,2.56 -5.53,3.54 -18.68,11.16 -25.28,12.47 -39.89,21.81 -27.65,17.66 -45.97,48.44 -61.58,77.27l-75.65 -24.32 -16.04 11.58c14.55,21.72 23.04,47.83 23.04,75.9l0 101.93c120.71,-161.12 313.16,-265.39 529.94,-265.39 51.19,0 101.44,5.91 149.97,17.19z"/>
    <path class="fil0" d="M3772.38 1179.05c-1.98,0.77 -4.24,1.59 -6.85,2.47l-92.77 35.43c-61.74,30 -58.42,17.42 -108.9,55.07 12.88,19.41 24.83,39.6 35.75,60.54 17.94,34.44 18.79,72.28 2.78,106.48 3.81,2.02 7.5,4.24 11.06,6.65 29.48,-98.89 82.78,-188.36 158.93,-266.64zm-1787.89 1093.95c-45.59,14.97 -73.36,41.04 -110.98,60.4 -22.17,11.41 -20.09,2.26 -45.38,11.6 -22.85,41.66 -15.28,68.64 -53.21,93.81 -24.31,16.13 -54.36,24.51 -80.62,44.01 -58.8,43.66 -101.72,81.5 -118.87,151.16 -63.81,11.53 -74.05,9.05 -110.78,69.93 -50.27,83.27 -36.32,36.01 -96.78,94.41 -23.67,22.87 -60.12,45.72 -72.49,59.9l-121.6 142.81c-38.95,43.55 -96.72,102.24 -125.34,151.12 41.85,-17.36 303.57,-201.94 360.03,-241.18 33.8,-23.49 46.62,-49.45 76.27,-78.24 73.88,-71.73 34.11,30.42 185.5,-111.26 38.09,-35.64 60.18,-28.27 96.66,-55.23 31.18,-23.03 49.12,-53.32 79.49,-72.5 45.41,-28.67 48.56,-13.77 94.13,-59.83 75.53,-76.33 112.38,-47 197.09,-90.61 30.79,-15.86 48.76,-50.75 78.01,-75.22 39.47,-33.01 15.69,-5.87 47.75,-22.37 43.49,-22.39 74.84,-61.11 87.68,-71.02 0.87,-0.68 1.71,-1.31 2.51,-1.91 -2.53,0.14 -5.09,0.22 -7.66,0.22l-361.41 0zm395.21 -4.23c3.7,1.4 9.68,0.77 23.22,-7.57 1.38,-0.84 2.65,-1.69 3.88,-2.53 -8.56,4.28 -17.63,7.69 -27.1,10.1zm85.45 -65.72c9.32,0.39 20.72,1.17 34.71,2.4 28.62,-39.08 39.2,-59.48 68.82,-76.57 -31.64,-28.63 -60.51,-60.26 -86.13,-94.46l0 101.93c0,24.21 -6.32,46.96 -17.4,66.7zm2069.01 -1159.33c143.5,-61.46 295.43,-122.89 315.91,-138.29 -59.42,-4.17 -301.54,41.73 -486.24,83.08 59.9,10.41 116.79,28.87 170.33,55.21z"/>
    <path class="fil0" d="M1774.45 1003.11c6.73,-4.3 18.24,-9.26 41.84,-18.69 30,-11.98 23.35,-18.15 54.21,-35.68l39.77 -22.94c1.36,-0.68 3.88,-1.97 5.23,-2.51l69.06 -39.48c25.16,-20.25 14.88,-19.16 61.19,-11.97 11.23,-50.55 41.32,-67.07 79.97,-85.57l74.47 -41.32c52.18,-26.95 55.81,-56.77 125.53,-84.6l107.37 -43.94c15.56,-76 67.22,-66.62 123.5,-93.87 52.9,-25.62 78.73,-58.37 108.95,-113.23l52.34 25.99c15.32,-23.87 13.86,-21.51 32.23,-35.85l42.45 -31.73c56.48,-40.65 24.2,-29.37 95.43,-30.23l38.25 -39.78c13.36,-7.22 4.68,-0.46 16.23,-9.34l454.68 -283.31c-70.34,-2.76 -442.18,76.97 -519.38,112.82l-68.79 12.29c-37.72,-0.49 -37.85,41.14 -65.87,56.84 -5.13,2.86 -28.47,9.7 -31.08,11.07l-30.06 28.2c-52.71,-18.99 -63.35,-9.38 -107.47,6.85 -130.54,48 -123.25,80.45 -170.34,97.63 -53.9,19.66 -68.56,-4.31 -65.92,68.6 -74.97,-37.58 -74.84,19.05 -142.07,4.74 -14.77,80.4 -27.26,60.66 -86.64,34.3 -1.69,9.87 -2.71,39.47 -2.9,40.14 -8.37,28.87 -30.15,25.39 -45.78,45.17 -11.45,14.5 -12.39,25.71 -22.41,38.64l-48.94 -29.14c-5.11,4.85 -26.79,24.48 -28.05,25.19 -1.77,1 -4.25,2.12 -6.11,2.98 -1.86,0.87 -4.51,1.57 -6.42,2.32 -38.75,15.27 5.52,-21.13 -41.14,19.93l-36.33 53.98 -45 -23.82c-8.86,65.83 -29.46,47.02 -76.65,101.24 -27.9,32.08 13.37,19.02 -42.66,19.48 -2.41,38.06 -0.86,19.97 5.47,52.55l-38.04 -27.65 -40.65 40.62c-32.49,27.52 -27.4,-5 -65.39,36.2 -30.97,33.59 -12.49,27.64 -53.41,52.2 -31.69,19.03 -27.84,14.3 -69.28,22.58 -17.99,48.03 -11.81,48.94 -50.67,72.28 -25.06,15.04 7.67,1.8 -19.37,8.84 -16.81,4.38 -13.59,-1 -32.86,-0.29l-10.43 44.46c22.98,19.84 39.3,47.19 45.11,78.22 11.86,-63.37 67.54,-111.41 134.32,-111.41l262.51 0zm-867.97 434.78c-1.66,1.27 -3.36,2.55 -5.09,3.84l5.09 5.7 0 -9.54z"/>
   </g>
   <path class="fil1" d="M3012.49 1097.47c208.56,0 389.51,118.12 479.66,291.1l-431.39 0c-38.96,0 -66.28,2.04 -96.75,-12.25 -74.72,-35.01 -37.19,-76.38 -37.19,-96.74 0,-33.18 -33.35,-17.67 -46.27,-2.95 -15.03,17.11 -26.72,35.79 -34,57.92 -3.82,11.59 -7.45,23.07 -10.01,35.96 -10.41,52.37 -8.21,113.38 -8.21,175.63l0.06 229.85c-0.34,34.75 -38.82,65.6 -72.27,65.6 3.46,12.94 64.1,51.99 69.17,55.57 8.6,4.78 19.39,10.13 28.01,14.01 19.93,8.94 41.71,15.53 63.53,20.51 110.26,25.13 263.69,3.17 330.16,-98.2 7.03,-10.72 13.12,-23.3 17.15,-35.37 1.7,-5.08 5.27,-15.16 5.4,-20.87 -29.38,-0.65 -80.2,-10.42 -105.5,-21.86l-35.88 -16.65c-31.4,-16.75 -53.62,-40.41 -68.94,-72.88 -16.8,-35.63 -15.53,-75.99 -15.53,-115.77 0,-3.03 0.91,-3.94 3.94,-3.94l497.63 0c5.12,29.88 7.82,60.58 7.82,91.92 0,298.55 -242.03,540.58 -540.59,540.58 -298.56,0 -540.58,-242.03 -540.58,-540.58 0,-298.56 242.02,-540.59 540.58,-540.59zm852.76 159.97c104.77,-104.78 231.72,-157.79 379.91,-157.79 148.38,0 275.48,53.13 380.59,157.76 105.14,104.65 158.52,231.56 158.52,379.95 0,148.55 -53.51,275.62 -158.48,380.6 -105,104.99 -232.06,158.5 -380.63,158.5 -148.38,0 -275.29,-53.4 -379.93,-158.54 -104.62,-105.11 -157.77,-232.21 -157.77,-380.56 0,-148.2 53.01,-275.15 157.79,-379.92zm175.7 175.69c56.41,-56.41 124.75,-84.95 204.54,-84.95 79.88,0 148.31,28.61 204.91,84.94 56.6,56.34 85.34,124.67 85.34,204.56 0,79.98 -28.81,148.39 -85.32,204.92 -56.53,56.52 -124.95,85.33 -204.93,85.33 -79.89,0 -148.22,-28.75 -204.56,-85.35 -56.33,-56.6 -84.94,-125.03 -84.94,-204.9 0,-79.79 28.54,-148.14 84.96,-204.55zm-2313.37 -98.24l0 197.16 508.79 0c8.53,0 15.48,6.96 15.48,15.48l0 181.06c0,8.52 -6.95,15.47 -15.48,15.47l-508.79 0 0 195.74 618.32 0c8.52,0 15.47,6.96 15.47,15.48l0 181.07c0,8.52 -6.95,15.48 -15.47,15.48l-833.96 0c-8.53,0 -15.48,-6.96 -15.48,-15.48l0 -996.59c0,-8.52 6.95,-15.47 15.48,-15.47l833.96 0c8.52,0 15.47,6.95 15.47,15.47l0 179.66c0,8.52 -6.95,15.47 -15.47,15.47l-618.32 0zm-1209.2 174.7l0 626.76c0,8.52 -6.95,15.48 -15.47,15.48l-200.17 0c-8.53,0 -15.48,-6.96 -15.48,-15.48l0 -996.59c0,-8.52 6.95,-15.47 15.48,-15.47l146.03 0c4.57,0 8.5,1.76 11.55,5.17l567.34 635.75 0 -625.45c0,-8.52 6.95,-15.47 15.47,-15.47l200.17 0c8.53,0 15.48,6.95 15.48,15.47l0 996.59c0,8.52 -6.95,15.48 -15.48,15.48l-146.02 0c-4.57,0 -8.51,-1.77 -11.56,-5.19l-567.34 -637.05z"/>
  </g>
 </g>
</svg>
